<svg width="255" height="170" viewBox="0 0 255 170" fill="none" xmlns="http://www.w3.org/2000/svg"><g clip-path="url(#clip0_0_1)"><path d="M221.235 64.549H100.229V14.552h9.455l-4.059-14.1 18.178 14.1h97.432v49.997z" fill="#C1B1FF"/><path d="M217.458 65H96.45a.45.45 0 01-.45-.451V14.552a.45.45 0 01.45-.451h8.857L101.414.576a.454.454 0 01.18-.498.445.445 0 01.527.016l18.058 14.009h97.279c.249 0 .451.202.451.451v49.997a.451.451 0 01-.451.451V65zm-120.56-.9h120.11V15.002h-96.984a.451.451 0 01-.275-.094l-17.09-13.257 3.679 12.775a.45.45 0 01-.432.576h-9.008V64.1z" fill="#8088BC"/><path d="M107.057 57.188h64.689V45.416h-64.689v11.773zm79.038 0h21.317V45.416h-21.317v11.773z" fill="#A5FFD6"/><path d="M138.665 39.114h-31.612a.45.45 0 010-.903h31.612a.45.45 0 010 .903zm68.747 0h-57.439a.451.451 0 010-.903h57.439a.45.45 0 010 .903zm-83.24-6.539h-17.119a.45.45 0 010-.902h17.119a.451.451 0 010 .902zm54.247 0h-49.173a.451.451 0 010-.902h49.173a.451.451 0 010 .902zm28.993 0h-22.118a.45.45 0 010-.902h22.118a.451.451 0 010 .902zm-88.262-6.537h-12.097a.45.45 0 010-.902h12.097a.451.451 0 010 .902zm38.912 0h-33.89a.45.45 0 010-.902h33.89a.451.451 0 010 .902zm29.791 0h-26.076a.451.451 0 010-.902h26.076a.45.45 0 010 .902z" fill="#B9DCDE"/><path d="M231.32 38.981c.281-.907 1.024-3.273 1.024-3.273s2.192.772 3.098 1.051c1.428.444 2.785.625 4.07.546 1.286-.08 2.418-.503 3.398-1.27.982-.766 1.719-1.953 2.216-3.56.367-1.186.404-2.324.108-3.41a6.381 6.381 0 00-1.688-2.878c-.831-.83-1.874-1.441-3.129-1.831a7.527 7.527 0 00-2.905-.327 8.919 8.919 0 00-2.762.692c-.709.317-1.719.933-1.719.933l-3.394-5.472s.676-.568 1.636-1.074a13.937 13.937 0 015.345-1.642c1.911-.192 3.823.01 5.74.604 2.404.745 4.402 1.969 5.997 3.668 1.593 1.699 2.681 3.653 3.257 5.86.579 2.208.505 4.48-.216 6.821-.539 1.746-1.277 3.21-2.216 4.393-.937 1.182-2.035 2.105-3.288 2.767a11.715 11.715 0 01-4.055 1.266c-1.451.182-2.915.16-4.488-.061-.151-.035-.314-.066-.312-.072l-1.654 5.365-6.168-2.004 2.105-7.094v.002zm-2.237 17.444c-1.01-.315-1.703-.825-2.074-1.534-.372-.708-.403-1.568-.089-2.581l.275-.89c.311-1.013.823-1.706 1.529-2.08.707-.373 1.565-.404 2.577-.09l.681.211c1.01.313 1.701.825 2.073 1.534.373.709.404 1.57.09 2.581l-.275.89c-.314 1.013-.823 1.706-1.53 2.08-.707.373-1.566.404-2.577.09l-.68-.211z" fill="#FFEFE5"/><path d="M229.595 55.829a4.77 4.77 0 01-1.422-.235l-.679-.21c-1.124-.35-1.912-.94-2.338-1.754-.43-.813-.471-1.797-.122-2.925l.275-.89c.348-1.125.937-1.915 1.749-2.344.813-.43 1.795-.472 2.92-.123l.678.21c1.122.35 1.911.94 2.338 1.755.43.816.471 1.8.123 2.926l-.275.89c-.349 1.128-.937 1.916-1.75 2.345a3.16 3.16 0 01-1.497.355zm-1.037-7.813a2.29 2.29 0 00-1.082.251c-.603.319-1.031.913-1.31 1.813l-.275.89c-.279.903-.258 1.636.059 2.239.318.604.911 1.033 1.811 1.313l.679.21c.9.28 1.629.26 2.234-.059.603-.318 1.031-.913 1.31-1.813l.275-.89c.279-.901.259-1.634-.059-2.239-.318-.604-.911-1.033-1.811-1.313l-.678-.21a3.901 3.901 0 00-1.153-.192zm5.371-.956a.454.454 0 01-.138-.022l-6.168-2.004a.453.453 0 01-.294-.557l2.105-7.094v-.004c.281-.91 1.024-3.276 1.024-3.276a.45.45 0 01.579-.29c.022.008 2.196.772 3.082 1.048 1.371.425 2.687.6 3.909.525 1.187-.074 2.247-.47 3.149-1.177.902-.704 1.597-1.827 2.063-3.337.339-1.098.375-2.16.104-3.159a5.981 5.981 0 00-1.572-2.677c-.774-.776-1.764-1.354-2.944-1.72a7.073 7.073 0 00-2.733-.308 8.57 8.57 0 00-2.624.658c-.668.298-1.652.898-1.662.905a.448.448 0 01-.615-.148l-3.394-5.472a.454.454 0 01.094-.584 10.62 10.62 0 011.715-1.128 14.428 14.428 0 015.51-1.69c1.966-.197 3.954.014 5.917.622 2.467.766 4.551 2.04 6.191 3.79 1.638 1.747 2.77 3.785 3.365 6.055.597 2.28.522 4.658-.222 7.068-.554 1.793-1.326 3.32-2.294 4.54-.973 1.225-2.126 2.197-3.43 2.885a12.253 12.253 0 01-4.21 1.315c-1.465.184-2.952.166-4.545-.053l-1.534 4.973a.46.46 0 01-.222.267.464.464 0 01-.208.051l.002-.002zm-5.612-2.748l5.317 1.727 1.52-4.927a.45.45 0 01.572-.294l.269.059c1.499.208 2.927.228 4.331.053a11.31 11.31 0 003.902-1.22c1.194-.63 2.251-1.52 3.148-2.648.898-1.131 1.617-2.56 2.138-4.245.693-2.247.764-4.458.212-6.572-.556-2.124-1.617-4.031-3.151-5.667-1.534-1.633-3.485-2.828-5.801-3.547-1.848-.574-3.72-.772-5.563-.586a13.536 13.536 0 00-5.176 1.589c-.534.282-.978.584-1.253.786l2.945 4.752c.367-.214.931-.529 1.388-.733a9.468 9.468 0 012.906-.73 8.05 8.05 0 013.078.346c1.32.408 2.434 1.064 3.312 1.942.884.884 1.492 1.92 1.805 3.077.316 1.166.277 2.398-.112 3.662-.521 1.689-1.318 2.961-2.369 3.782-1.049.82-2.277 1.28-3.646 1.364-1.334.084-2.756-.106-4.231-.564-.664-.206-1.986-.663-2.677-.904-.228.729-.678 2.164-.884 2.826l-1.978 6.67-.002.002z" fill="#FF9D60"/></g><path d="M21.2 31.207c-1.601-7.345 5.94-9.02 5.94-9.02-11.733-19.014-23.205-3.808-24.986 3.71-2.337 9.829 1.569 27.282 6.725 28.417l1.135-1.52 1.561 2.24c3.023 1.38 10.59 2.434 12.55 1.576 0 0-2.827-24.953-2.925-25.403z" fill="#46171F"/><path d="M44.683 50.376l.924 14.168c-.646 1.389-6.276 1.52-16.53-2.239l.825-13.016s5.63.972 14.781 1.087z" fill="#FDD7D4"/><path d="M44.756 51.373l.408 6.283c-7.623 2.704-7.966-7.615-7.95-7.607 3.84 1.332 6.48 1.806 7.542 1.324z" fill="#101C3A"/><path d="M46.448 55.221c-4.29.817-13.253-3.48-15.753-7.051-.891-1.275-3.44-23.638.62-26.032 1.708-1.005 13.499-1.267 15.223-1.602 3.954-.776 5.948 9.11 7.1 14.79 1.3 6.373.376 18.465-7.19 19.903v-.008z" fill="#FDD7D4"/><path d="M30.882 53.04a46.74 46.74 0 014.355-2.599c1.397-4.412 4.338-13.538 5.45-15.777 1.102-2.215 5.686 8.955 5.686 8.955 1.626-7.256-.506-13.62 2.32-15.745 3.024-2.272 5.729-14.095-7.042-11.578-6.913 1.364-16.26-2.051-20.73 7.443-6.25 13.27 10.582 25.24 9.96 29.293v.008z" fill="#46171F"/><path d="M42.404 35.955a4.074 4.074 0 01-1.602 5.54 4.074 4.074 0 01-5.54-1.602 4.074 4.074 0 011.602-5.54 4.074 4.074 0 015.54 1.602z" fill="#FDD7D4"/><path d="M39.307 40.914c-.458.09-.964.025-1.324-.073l.205-.727s1.233.326 1.454-.295c.065-.18.065-.18-.237-.375-.36-.23-.899-.572-.89-1.512 0-.646.261-1.079.449-1.39.261-.44.327-.547-.286-1.061a.61.61 0 00-.547-.156c-.801.156-1.716 1.537-2.002 2.06l-.662-.36c.122-.22 1.225-2.182 2.516-2.435h.009a1.36 1.36 0 011.176.319c1.022.858.817 1.397.45 2.026-.164.278-.344.572-.344 1.013 0 .523.237.678.548.866.302.188.809.515.54 1.259-.18.514-.59.76-1.047.85l-.008-.009z" fill="#9D6266"/><path d="M47.044 82.74c12.387 18.883 19.733 37.096 19.733 37.096-4.788 10.32-32.283 21.407-38.337 22.265C1.778 105.235 5.43 81.588 17.49 69.97c5.034-4.854 17.168-6.112 29.555 12.77z" fill="#FFBFA3"/><path d="M17.17 120.31c-1.985-7.877-4.485-53.715 7.069-53.715 0 0 2.116-4.886 5.417-5.27 3.293-.384 17.314-4.151 18.825-2.68 1.512 1.47 2.877 3.39 2.877 3.39s14.445-4.934 22.33 6.284c5.859 8.334 20.573 89.797 15.597 100.394H21.47c-6.774-1.765-10.312 3.015-15.116 0 0 0 12.802-40.519 10.817-48.395v-.008z" fill="#FFBFA3"/><path d="M90.421 99.13s12.829 13 12.943 19.071c.114 6.079 5.785 18.613 2.182 18.915-6.668.564-26.776-3.774-32.863-14.568-6.088-10.794 13.449-26.645 17.747-23.418h-.009z" fill="#F8A3A2"/><path d="M140.835 48.652c-3.129 1.209-9.887 2.99-13.384 4.992a.319.319 0 00-.081.065c-2.631 1.03-9.846 8.073-10.827 9.78-1.462 2.542-.155 2.01-3.137 8.752a15.26 15.26 0 00-.18.613h-.016c-.548.85-1.128 1.789-1.741 2.786-.073.09-.13.18-.18.294-3.448 5.63-7.778 13.139-11.422 19.577-4.51 7.019-9.07 14.176-11.595 20.149-5.392 12.755 18.189 34.554 26.482 11.586 4.224-11.692 7.525-34.62 8.865-44.963a20.218 20.218 0 001.79-2.362s6.904-5.213 9.968-6.871c3.064-1.659 2.092-4.453 1.397-6.75-.703-2.303 0-3.194-1.871-5.057-1.552-1.544-2.051-2.974-2.639-4.282 2.966-1.119 7.427-3.44 10.025-5.834 2.157-1.985-.057-2.99-1.429-2.459l-.025-.016z" fill="#FDD7D4"/><path d="M101.052 117.057l-.858-.057c.515-7.746-4.061-13.359-4.11-13.416l.662-.548c.196.237 4.845 5.924 4.306 14.021z" fill="#D17F80"/><path d="M48.677 65.933c8.661-5.646 17.64-4.993 24.717 1.79 9.527 9.126 23.956 33.761 23.956 33.761-3.448 22.706-14.789 50.675-14.789 50.675-16.317-16.889-35.919-46.206-41.132-59.148-5.212-12.943 1.773-23.524 7.248-27.086v.008z" fill="#FFBFA3"/><path d="M255 167.191H0v2h255v-2z" fill="#F4B7C7"/><defs><clipPath id="clip0_0_1"><path fill="#fff" transform="translate(96)" d="M0 0h156v65H0z"/></clipPath></defs></svg>