<svg width="255" height="177" viewBox="0 0 255 177" fill="none" xmlns="http://www.w3.org/2000/svg"><path d="M211.14 5.086h-90.675a5.642 5.642 0 00-5.645 5.637v18.41a5.642 5.642 0 005.645 5.638h90.675a5.641 5.641 0 005.645-5.638v-18.41a5.641 5.641 0 00-5.645-5.637z" fill="#FFBFA3"/><path d="M150.734 32.89l-4.513 34.944 15.804-35.694-11.291.75z" fill="#FFBFA3"/><path d="M135.56 17.112a.544.544 0 00-.506-.372l-5.093-.042-1.615-4.822a.54.54 0 00-.51-.367.54.54 0 00-.51.367l-1.614 4.822-5.093.042a.538.538 0 00-.315.97l4.092 3.025-1.53 4.848a.536.536 0 00.825.594l4.145-2.953 4.146 2.953a.532.532 0 00.625-.004.532.532 0 00.196-.593l-1.531-4.849 4.092-3.026a.538.538 0 00.192-.597l.004.004zm19.32 0a.544.544 0 00-.506-.372l-5.093-.042-1.614-4.822a.539.539 0 00-1.02 0l-1.615 4.822-5.093.042a.538.538 0 00-.314.969l4.092 3.026-1.531 4.848a.536.536 0 00.825.594l4.146-2.953 4.145 2.953a.532.532 0 00.625-.004.532.532 0 00.196-.593l-1.53-4.849 4.092-3.026a.537.537 0 00.191-.597l.004.004zm19.318 0a.544.544 0 00-.507-.372l-5.092-.042-1.615-4.822a.54.54 0 00-.51-.367.54.54 0 00-.51.367l-1.615 4.822-5.092.042a.538.538 0 00-.315.969l4.092 3.026-1.53 4.848a.536.536 0 00.824.594l4.146-2.953 4.146 2.953a.533.533 0 00.625-.004.532.532 0 00.195-.593l-1.53-4.849 4.092-3.026a.538.538 0 00.192-.597l.004.004zm19.32 0a.544.544 0 00-.506-.372l-5.093-.042-1.615-4.822a.54.54 0 00-.51-.367.54.54 0 00-.51.367l-1.614 4.822-5.093.042a.538.538 0 00-.315.97l4.092 3.025-1.53 4.848a.536.536 0 00.825.594l4.145-2.953 4.146 2.953a.532.532 0 00.625-.004.532.532 0 00.196-.593l-1.531-4.849 4.092-3.026a.538.538 0 00.192-.597l.004.004zm19.317 0a.544.544 0 00-.506-.372l-5.093-.042-1.614-4.822a.54.54 0 00-.51-.367.54.54 0 00-.51.367l-1.615 4.822-5.093.042a.538.538 0 00-.314.969l4.092 3.026-1.53 4.848a.536.536 0 00.824.594l4.146-2.953 4.145 2.953a.532.532 0 00.625-.004.532.532 0 00.196-.593l-1.53-4.849 4.092-3.026a.537.537 0 00.191-.597l.004.004z" fill="#A5FFD6"/><path d="M78.013 102.436s-19.47 17.265-20.307 35.556c-.836 18.292 3.06 36.847 3.06 36.847h63.144s4.452-32.979-2.225-49.213c-6.676-16.231-15.577-32.209-15.577-32.209l-28.095 9.019z" fill="#22689E"/><path opacity=".5" d="M123.715 132.474c-4.863 7.081-15.789 15.304-25.077 18.75-.066 9.269-.928 14.5-2.788 23.611h28.06s3.398-25.177-.199-42.361h.004zm-42.396-24.588c7.54 2.83 16.103 3.853 24.149 4.435 3.486.253 6.976.364 10.458.341-5.124-10.827-9.818-19.245-9.818-19.245l-28.095 9.019s-1.09.969-2.765 2.685c1.967 1.03 3.973 1.98 6.067 2.765h.004z" fill="#003154"/><path d="M77.334 106.986s-.452.805-1.189 2.206m-2.274 4.481c-3.582 7.322-8.786 19.233-9.706 28.325-.97 9.579.299 21.16 1.215 27.613m.372 2.483c.245 1.562.414 2.47.414 2.47" stroke="#3387C1" stroke-width="1.09" stroke-miterlimit="10"/><path d="M77.334 145.254c1.799.41 3.586.87 5.38 1.306l2.681.682 2.677.697c1.783.464 3.566.946 5.346 1.425 1.783.475 3.555.98 5.334 1.467h-.226c.46-.142.94-.326 1.408-.506.467-.184.939-.371 1.399-.582.464-.203.925-.414 1.381-.636.46-.214.909-.448 1.357-.682.453-.225.898-.474 1.343-.716a30.4 30.4 0 001.323-.754c.437-.257.878-.51 1.304-.789l1.292-.812 1.266-.85c.425-.276.836-.582 1.25-.877.414-.299.832-.586 1.239-.893l1.211-.93.61-.464.595-.482 1.188-.965c.399-.322.771-.671 1.159-1.004l1.162-.999-1.074 1.095c-.365.356-.717.731-1.093 1.076l-1.128 1.046-.563.521-.583.501-1.174.992c-.395.33-.805.636-1.208.958-.406.314-.809.635-1.227.93l-1.25.9-1.281.858c-.426.291-.867.552-1.304.824-.437.271-.878.54-1.327.789-.449.252-.89.517-1.35.75-.456.238-.913.483-1.377.701-.46.23-.928.448-1.399.659-.468.214-.948.41-1.431.605-.483.191-.962.368-1.48.525l-.111.034-.115-.034c-1.772-.506-3.552-1-5.32-1.521-1.771-.517-3.54-1.026-5.307-1.559l-2.65-.796-2.646-.812c-1.757-.559-3.52-1.095-5.273-1.681l-.008.003z" fill="#003154"/><path d="M102.242 113.773c.369 2.96.533 5.944.648 8.931.027.747.039 1.494.047 2.241.007.746.011 1.493 0 2.24a117.544 117.544 0 01-.112 4.481c-.027.747-.073 1.494-.115 2.24-.05.747-.096 1.494-.168 2.237a98.82 98.82 0 01-.503 4.462 72.014 72.014 0 01-.33 2.221 72.83 72.83 0 01-.84 4.416c-.153.735-.345 1.459-.517 2.19l-.572-.474c1.929-.92 3.874-1.812 5.814-2.712l-.215.253a45.99 45.99 0 00.514-1.999c.158-.674.307-1.348.445-2.026.28-1.356.522-2.72.736-4.087.108-.685.208-1.371.3-2.056l.257-2.061c.076-.689.157-1.375.218-2.068.069-.689.123-1.379.177-2.072.049-.693.095-1.382.126-2.076.038-.693.058-1.386.081-2.079.034-1.387.03-2.773.015-4.159a80.159 80.159 0 00-.176-4.16c-.043-.693-.108-1.386-.169-2.075-.054-.694-.142-1.383-.211-2.076.107.685.23 1.371.326 2.06a79.13 79.13 0 01.602 6.239c.034.697.073 1.394.08 2.091.024.697.02 1.394.027 2.091-.007.697-.007 1.394-.03 2.091a81.136 81.136 0 01-.077 2.091c-.038.697-.073 1.395-.127 2.088-.046.697-.107 1.39-.168 2.087a89.249 89.249 0 01-.518 4.155 82.396 82.396 0 01-1.143 6.182 49.56 49.56 0 01-.506 2.045l-.046.172-.169.081c-1.933.911-3.862 1.83-5.806 2.723l-.775.356.204-.831c.176-.72.372-1.437.525-2.16.169-.72.318-1.448.464-2.176a85.157 85.157 0 00.748-4.393c.215-1.47.391-2.945.537-4.423a124.518 124.518 0 00.598-8.9c.05-1.486.061-2.976.073-4.466.008-1.49-.008-2.98-.05-4.469-.046-1.49-.104-2.98-.207-4.466h-.012zm-3.298 37.455s0 .092.008.268c.004.173.015.429.011.759 0 .655.008 1.589-.034 2.711a56.29 56.29 0 01-.08 1.808c-.035.64-.07 1.317-.12 2.014-.065.697-.13 1.417-.199 2.149-.08.731-.134 1.474-.245 2.217-.104.74-.211 1.479-.315 2.21-.053.364-.107.724-.157 1.08-.065.356-.134.705-.2 1.05-.126.689-.264 1.352-.394 1.98-.13.628-.238 1.225-.391 1.765-.277 1.088-.537 1.984-.702 2.616-.18.628-.28.984-.28.984s.057-.367.153-1.015c.108-.643.242-1.566.441-2.661.111-.544.173-1.149.257-1.781.08-.632.161-1.302.26-1.992.047-.344.097-.693.143-1.049.038-.356.073-.716.111-1.08.077-.728.157-1.463.238-2.202.096-.736.138-1.479.203-2.206.065-.728.126-1.444.188-2.137.042-.694.096-1.364.146-1.999.053-.636.096-1.238.118-1.793.027-.555.066-1.065.096-1.516.023-.452.046-.843.062-1.169.034-.651.057-1.018.057-1.018h.614l.011.007z" fill="#003154"/><path d="M79.106 3.826s7.175-7.311 19.807-1.72c12.633 5.592 4.736 29.528 10.911 37.414 4.767 6.09 14.208 15.05 2.872 27.234-11.336 12.182-28.421-5.88-27.846-25.947.576-20.069-5.74-36.985-5.74-36.985l-.004.004z" fill="#46171F"/><path d="M74.945 32.71s6.673 20.858-2.585 20.21c-9.258-.642-18.515.215-13.135 16.128 5.385 15.913 55.121 1.934 55.121-7.954 0-9.889-6.673-11.398-16.794-7.526-10.12 3.872-6.458-15.694-6.458-15.694l-16.149-5.16v-.003z" fill="#FDD7D4"/><path d="M77.258 46.521c2.654 2.314 5.468 4.359 9.085 5.355 1.998.547 4 .85 5.99.942-3.325-3.803-1.242-14.944-1.242-14.944l-16.15-5.16s2.524 7.886 2.313 13.811l.004-.004z" fill="#FDD7D4"/><path d="M64.395 20.023l-.644 18.49s13.135 6.882 13.135 6.235c0-.647 2.8-17.2 2.8-17.2l-15.287-7.525h-.004z" fill="#003154"/><path d="M71.21 27.556s-7.566.505-3.877 7.096c3.889 6.948 7.97 2.371 7.97 2.371l-4.096-9.467h.003z" fill="#FDD7D4"/><path d="M68.774 28.624s-.287 5.304 5.166 7.598c5.453 2.295-2.585-9.746-2.585-9.746l-2.585 2.148h.004z" fill="#003154"/><path d="M78.101 10.992s21.78-8.46 22.466 18.49c.644 25.373-24.978 18.49-29.714.43-4.353-16.592 7.248-18.924 7.248-18.924v.004z" fill="#FDD7D4"/><path d="M72.36 56.145s5.166 8.314 15.501 8.027c10.335-.287 12.92-12.041 12.92-12.041s10.335-3.872 13.35 3.585c3.014 7.456-.43 48.022-.43 48.022s-14.642 6.162-33.015 1.578c0 0-24.402-31.248-22.968-44.58 1.434-13.331 14.642-4.588 14.642-4.588v-.004z" fill="#FFBFA3"/><path d="M114.46 79.093c-8.275-.43-16.429-.847-24.486-2.95-7.958-2.075-15.359-5.334-22.335-9.673-3.336-2.076-6.577-4.286-9.817-6.507-.039.249-.073.505-.104.77-1.434 13.331 22.968 44.579 22.968 44.579 18.373 4.588 33.015-1.578 33.015-1.578s1.043-12.305 1.48-24.607l-.717-.034h-.004z" fill="#FFBFA3"/><path d="M84.417 36.077l12.92-1.865s-3.014 7.165-12.92 1.865z" fill="#fff"/><path d="M91.02 24.182c.124.306.254.6.38.896.135.29.261.582.403.865.134.284.28.563.434.835.145.276.31.54.479.793.165.26.345.506.537.743.1.115.192.234.291.349a7.132 7.132 0 00.993.912c.123.087.246.171.372.252.123.088.261.153.392.23l.433.256-.353.268c-.176.134-.356.26-.537.387-.18.127-.36.257-.544.38-.368.248-.74.49-1.128.715.28-.348.58-.678.882-1.003.15-.165.307-.322.46-.483.154-.16.307-.317.468-.47l.085.524c-.161-.061-.326-.111-.483-.188-.162-.065-.311-.153-.46-.237-.146-.092-.296-.18-.434-.284a4.619 4.619 0 01-.403-.325 5.932 5.932 0 01-.705-.75 8.158 8.158 0 01-.568-.847 9.386 9.386 0 01-.437-.908 9.182 9.182 0 01-.315-.95 7.78 7.78 0 01-.191-.972 5.324 5.324 0 01-.05-.988zm.431-2.44s.027-.184.115-.49c.092-.306.238-.743.491-1.233.25-.494.59-1.054 1.09-1.578.244-.264.532-.517.87-.736.33-.222.728-.398 1.158-.49a2.713 2.713 0 011.311.035c.426.103.786.317 1.093.544.303.233.549.494.756.75l.276.387c.084.126.15.26.218.38.146.237.242.474.327.68.092.204.15.392.195.545.092.306.13.486.13.486s-.134-.13-.345-.364c-.103-.119-.234-.256-.38-.413-.149-.157-.31-.334-.494-.51-.176-.187-.391-.36-.598-.547a5.531 5.531 0 00-.698-.487 6.709 6.709 0 00-.376-.18c-.13-.034-.257-.096-.387-.107a1.725 1.725 0 00-.779.008 2.64 2.64 0 00-.79.302c-.257.146-.51.318-.748.51-.237.187-.46.394-.67.593-.208.203-.407.398-.584.59-.353.38-.648.712-.859.946l-.33.371.008.008zm-3.731 1.003s-.193-.114-.53-.298a21.81 21.81 0 00-1.392-.686c-.583-.245-1.262-.505-1.998-.662a6.494 6.494 0 00-1.128-.154c-.383-.023-.767 0-1.142.058-.38.05-.745.16-1.101.291-.18.061-.345.153-.522.222-.165.092-.33.18-.494.268-.158.104-.315.203-.464.303l-.43.322c-.142.107-.265.226-.399.333a4.374 4.374 0 00-.368.325c-.23.215-.445.418-.621.61-.184.187-.35.348-.476.493-.257.284-.422.44-.422.44s.066-.21.204-.574c.065-.184.16-.402.287-.643l.196-.39c.077-.131.169-.269.26-.41.173-.292.407-.583.66-.885.138-.146.28-.291.426-.445.157-.141.326-.28.495-.42.176-.131.368-.258.56-.384.203-.107.402-.233.625-.322a5.64 5.64 0 011.388-.41 5.58 5.58 0 011.442-.026c.472.046.92.157 1.338.302a6.94 6.94 0 011.143.514c.345.195.648.405.92.612.541.414.925.824 1.178 1.122.25.303.364.494.364.494zm-1.481 4.891c.165 1.058-.061 1.969-.502 2.038-.441.069-.932-.732-1.097-1.789-.165-1.057.061-1.968.502-2.037.441-.069.932.731 1.097 1.788zm12.118-2.168c.165 1.058-.061 1.969-.502 2.038-.441.069-.932-.732-1.097-1.789-.165-1.057.061-1.968.502-2.037.441-.069.932.731 1.097 1.788zm-12.79 12.475s.718.31 1.787.697a20.76 20.76 0 001.837.57c.338.096.69.153 1.043.226.357.058.722.115 1.082.127.36.034.72.023 1.074 0 .349-.046.694-.077 1.016-.173.165-.038.318-.096.468-.145.157-.046.295-.115.437-.18.146-.058.268-.142.399-.21.134-.066.25-.15.36-.227.234-.145.418-.322.603-.463.16-.161.318-.291.433-.414.226-.245.364-.387.364-.387s-.076.176-.226.487c-.08.153-.192.325-.326.532-.15.188-.307.421-.53.62a4.18 4.18 0 01-.763.617c-.149.092-.302.192-.471.268a3.365 3.365 0 01-.526.218 5.46 5.46 0 01-1.154.276 7.15 7.15 0 01-1.216.03 8.738 8.738 0 01-2.293-.486 8.957 8.957 0 01-.986-.406 9.421 9.421 0 01-.84-.444c-1.02-.59-1.575-1.145-1.575-1.145l.003.012z" fill="#9D6266"/><path d="M61.596 4.756s4.95-6.663 17.87-3.224c12.92 3.439 5.385 26.448-8.18 29.459-13.564 3.01-3.37 10.18 3.521 6.74 0 0 10.305 10.36 2.293 18.418-6.757 6.798-8.682-4.087-14.496-2.149-5.814 1.934-5.526 9.245-2.082 18.276 0 0-15.716-1.076-14.427-15.051C47.387 43.25 61.81 42.603 58.796 25.403c-3.014-17.2 2.8-20.643 2.8-20.643v-.004z" fill="#46171F"/><path d="M60.518 72.272S42.052 70.22 44.169 56.344c2.12-13.875 16.556-13.665 14.57-31.014-1.987-17.349 4.018-20.443 4.018-20.443s5.339-6.362 18.032-2.164" fill="#46171F"/><path d="M70.35 32.496s15.502-2.723 15.502-22.504z" fill="#46171F"/><path d="M141.044 38.73c-.862-.428-2.37 1.72-2.37 1.72s1.937-3.872.863-4.3c-1.077-.43-2.151 2.58-2.151 2.58s1.078-3.653-.215-3.871c-1.292-.215-3.014 4.73-3.014 4.73s3.658-11.18 2.151-11.18c-.46 0-2.155 3.19-4.291 7.622-.614-.855-1.887-1.67-3.674 2.052-1.285 2.674-.867 4.707-.119 6.074-4.134 9.058-8.276 18.652-8.276 18.652s8.18 10.107 11.843 3.224c3.658-6.882 10.12-26.877 9.257-27.306l-.004.004z" fill="#FDD7D4"/><path d="M124.132 53.26a1148.343 1148.343 0 00-4.188 9.552s8.18 10.107 11.843 3.225c1.292-2.428 2.934-6.495 4.479-10.758-4.069-.56-8.145-1.164-12.134-2.018z" fill="#B4CADB"/><path d="M129.393 36.348a2.437 2.437 0 011.097-.919c.234-.077.487-.13.74-.088.062.008.127.015.188.027l.177.065c.122.038.23.1.333.172.108.065.211.134.299.222.089.085.192.161.273.253.153.192.329.368.452.578.28.406.51.816.748 1.23.234.417.46.839.667 1.275.104.218.204.44.288.67.08.234.165.468.184.751 0 .138.008.318-.142.486-.157.165-.364.173-.506.161a2.44 2.44 0 01-.748-.233 11.096 11.096 0 01-1.265-.724l.195-.368c.177.084.322.172.472.28.149.1.284.218.422.333.122.126.26.245.368.387.111.138.226.275.318.433l.142.225.111.245.108.246.072.256.073.257c.016.088.023.176.035.264.019.176.054.349.038.525-.007.176-.007.352-.019.525l-.092.513c-.023.172-.081.337-.13.501l-.165.49-.219.468c-.077.153-.138.314-.226.46-.177.294-.357.581-.537.869.15-.307.295-.613.449-.912.073-.153.122-.314.184-.47l.176-.472.123-.486c.042-.161.092-.322.103-.487l.062-.494c0-.164-.004-.329-.008-.494.008-.164-.034-.325-.057-.486-.016-.08-.027-.161-.043-.241l-.076-.23-.077-.23-.107-.218-.108-.219-.134-.203c-.081-.137-.192-.26-.295-.383-.1-.126-.23-.226-.342-.34-.126-.1-.249-.203-.387-.291a3.19 3.19 0 00-.406-.238l.195-.368c.399.253.802.495 1.22.686.207.092.422.176.606.2.092.007.149-.012.157-.024.019-.008.038-.088.03-.184-.007-.191-.076-.417-.153-.628a10.94 10.94 0 00-.265-.643c-.191-.43-.406-.85-.625-1.268l-.329-.628c-.108-.214-.231-.41-.349-.609-.108-.207-.265-.375-.399-.563-.073-.092-.161-.16-.238-.245a1.264 1.264 0 00-.261-.215 1.115 1.115 0 00-.291-.168l-.154-.069-.161-.034c-.218-.058-.445-.027-.667.026-.437.138-.828.437-1.135.797l.011-.004z" fill="#9D6266"/><path d="M134.091 41.978c.119.142.257.265.406.364.081.042.154.096.238.123a.833.833 0 00.253.069c.085.019.173 0 .257 0 .081-.03.165-.042.242-.084.073-.05.153-.08.214-.138l.192-.176.161-.211a1.19 1.19 0 00.15-.218l.134-.23c.05-.073.077-.161.119-.241.073-.165.157-.322.211-.498l.184-.51.291.123c-.237.544-.46 1.107-.64 1.67a6.282 6.282 0 00-.211.85 2.18 2.18 0 00-.034.41c0 .13.03.248.072.302l.023.023.046.027s0-.008-.007-.008c.007 0 .046 0 .092-.023.092-.042.195-.134.291-.23.192-.203.365-.44.526-.685.326-.49.613-1.023.874-1.551l.38.15a14.725 14.725 0 00-.453 1.68 7.341 7.341 0 00-.13.85 2.38 2.38 0 000 .414.718.718 0 00.103.349c.031.038.062.073.108.084 0 0 .042.012.011.008h.165c.05-.02.092-.02.15-.054.053-.038.115-.057.165-.107.21-.172.398-.395.559-.636.326-.482.591-1.01.829-1.547a8.32 8.32 0 01-.69 1.635c-.073.13-.158.257-.242.383a2.198 2.198 0 01-.311.345c-.053.057-.13.096-.199.142-.069.046-.177.069-.265.095h-.165c-.065 0-.061-.007-.092-.015a.508.508 0 01-.245-.168 1.006 1.006 0 01-.177-.48 2.834 2.834 0 01-.023-.466c.008-.307.043-.605.089-.9.103-.59.245-1.169.418-1.743l.379.15a14.037 14.037 0 01-.889 1.612c-.169.26-.349.513-.579.747a1.43 1.43 0 01-.422.317.605.605 0 01-.345.054c-.039-.008-.081-.023-.116-.034l-.053-.031c-.077-.046-.104-.08-.146-.126-.138-.192-.153-.387-.161-.556 0-.172.019-.333.046-.49a6.38 6.38 0 01.249-.9c.2-.582.445-1.137.721-1.685l.292.122-.215.517c-.065.173-.161.338-.245.506-.046.08-.081.169-.135.245l-.157.238c-.092.164-.238.298-.36.44l-.227.18c-.076.061-.172.092-.257.138-.088.042-.191.05-.283.073-.096-.004-.2.007-.292-.02a1.003 1.003 0 01-.268-.095c-.089-.035-.161-.1-.238-.153a1.973 1.973 0 01-.372-.41l.004-.016z" fill="#9D6266"/><path d="M55.138 67.328s14.354 40.998 27.128 45.87l6.317-11.754s-15.36-35.694-20.959-39.85c-5.599-4.155-12.486 5.734-12.486 5.734z" fill="#FDD7D4"/><path d="M69.281 84.198c3.283-1.589 5.99-3.868 8.234-6.594-3.785-7.526-7.632-14.336-9.89-16.01-5.6-4.155-12.487 5.734-12.487 5.734s3.095 8.84 7.689 18.793c2.205-.352 4.372-.915 6.454-1.923z" fill="#B4CADB"/><path d="M68.2 56.145s-7.322-8.028-12.92.574c-5.6 8.602 4.306 26.376 4.306 26.376s9.472-1.145 17.944-9.318c0 0-5.6-13.619-9.33-17.632z" fill="#FFBFA3"/><path d="M130.878 57.602l-30.33 4.884a2.149 2.149 0 00-1.782 2.463l7.359 45.572a2.151 2.151 0 002.466 1.78l30.33-4.885a2.148 2.148 0 001.782-2.463l-7.358-45.572a2.152 2.152 0 00-2.467-1.779z" fill="#DDD3D3"/><path d="M140.458 105.289l-30.327 4.879a2.158 2.158 0 01-2.47-1.781l-7.355-45.57c-.015-.089-.012-.177-.015-.261a2.142 2.142 0 00-1.53 2.397l7.355 45.571a2.153 2.153 0 002.47 1.781l30.327-4.879a2.143 2.143 0 001.798-2.202c-.084.023-.165.053-.253.069v-.004z" fill="#A39D9C"/><path d="M120.593 78.38c.111-2.164.863-3.01.874-3.022l-.238-.226-.234-.226c-.049.054-.954 1.03-1.062 3.52-.015 0-.031 0-.046.004a4.455 4.455 0 00-3.693 5.105 4.459 4.459 0 005.112 3.688 4.455 4.455 0 003.693-5.105 4.46 4.46 0 00-4.41-3.742l.004.004z" fill="#fff"/><path d="M119.979 76.649s-.326-3.056-4.391-1.141c0 0 1.718 2.834 4.391 1.141z" fill="#fff"/><path d="M106.234 73.635s17.944 3.01 1.005-2.436c0 0-4.594-2.007-10.623 2.723-5.427 4.259-19.302 21.455-22.19 32.6 3.41 4.396 6.973 7.464 10.133 7.108 6.991-.785 18.661-32.11 18.661-32.11s17.081 7.166 1.146-2.58c0 0 24.402 8.027 1.58-2.724 0 0 21.963 5.16.288-2.581z" fill="#FDD7D4"/><path d="M255 175H0v2h255v-2z" fill="#F4B7C7"/></svg>