<svg width="23" height="30" viewBox="0 0 23 30" fill="none" xmlns="http://www.w3.org/2000/svg"><path d="M22.268 10.227c-.164.135-3.057 1.866-3.057 5.715 0 4.452 3.682 6.027 3.792 6.066-.017.096-.585 2.157-1.941 4.257-1.21 1.848-2.473 3.693-4.394 3.693-1.921 0-2.416-1.185-4.634-1.185-2.162 0-2.93 1.224-4.688 1.224-1.757 0-2.983-1.71-4.393-3.81C1.32 23.721 0 19.89 0 16.254 0 10.422 3.571 7.33 7.086 7.33c1.868 0 3.425 1.302 4.598 1.302 1.116 0 2.856-1.38 4.981-1.38.805 0 3.699.078 5.603 2.976zm-6.612-5.445c.88-1.107 1.5-2.643 1.5-4.179 0-.213-.016-.429-.053-.603-1.43.057-3.13 1.011-4.156 2.274-.806.972-1.557 2.508-1.557 4.065 0 .234.037.468.053.543.09.018.238.04.385.04 1.283 0 2.896-.913 3.828-2.14z" fill="#000"/></svg>